HIERARCHY
ROOT simHips
{
  OFFSET 92.8171 99.8027 30.6099
  CHANNELS 6 Xposition Yposition Zposition Zrotation Xrotation Yrotation
  JOINT simSpine
  {
    OFFSET -0.000355721 21.3001 -0.016921
    CHANNELS 3 Zrotation Xrotation Yrotation
    JOINT simLeftArm
    {
      OFFSET 13.5181 21.3012 0
      CHANNELS 3 Zrotation Xrotation Yrotation
      JOINT simLeftForeArm
      {
        OFFSET 24.5783 0 0
        CHANNELS 3 Zrotation Xrotation Yrotation
        JOINT simLeftHand
        {
          OFFSET 24.5783 0 0
          CHANNELS 3 Zrotation Xrotation Yrotation
          End Site
          {
            OFFSET 7.32568 1.52588e-05 0.0169305
          }
        }
      }
    }
    JOINT simHead
    {
      OFFSET 0 27.4458 -0.00489235
      CHANNELS 3 Zrotation Xrotation Yrotation
      End Site
      {
        OFFSET 0 0 0
      }
    }
    JOINT simRightArm
    {
      OFFSET -13.5174 21.3012 0
      CHANNELS 3 Zrotation Xrotation Yrotation
      JOINT simRightForeArm
      {
        OFFSET -24.5783 0 0
        CHANNELS 3 Zrotation Xrotation Yrotation
        JOINT simRightHand
        {
          OFFSET -24.5783 0 0
          CHANNELS 3 Zrotation Xrotation Yrotation
          End Site
          {
            OFFSET -7.32568 1.52588e-05 0.0169305
          }
        }
      }
    }
  }
  JOINT simRightUpLeg
  {
    OFFSET -8.44614 -9.41038 0.835684
    CHANNELS 3 Zrotation Xrotation Yrotation
    JOINT simRightLeg
    {
      OFFSET 0 -40.9639 0
      CHANNELS 3 Zrotation Xrotation Yrotation
      JOINT simRightFoot
      {
        OFFSET 0 -40.9639 0
        CHANNELS 3 Zrotation Xrotation Yrotation
        End Site
        {
          OFFSET 0.50614 -9.67405 14.6709
        }
      }
    }
  }
  JOINT simLeftUpLeg
  {
    OFFSET 8.44614 -9.41038 0.835684
    CHANNELS 3 Zrotation Xrotation Yrotation
    JOINT simLeftLeg
    {
      OFFSET 0 -40.9639 0
      CHANNELS 3 Zrotation Xrotation Yrotation
      JOINT simLeftFoot
      {
        OFFSET 0 -40.9639 0
        CHANNELS 3 Zrotation Xrotation Yrotation
        End Site
        {
          OFFSET -0.50614 -9.67405 14.6709
        }
      }
    }
  }
}
MOTION
Frames:	22
Frame Time:	0.0333333
36.7173 88.0794 32.3638 -5.2156 11.311 -147.237 0.633603 23.0951 -31.3247 -7.44437 12.7105 -57.4886 23.3958 -10.027 -68.5058 28.251 -11.3226 -3.94886 1.0517 20.8462 17.9057 91.5984 10.0612 -29.3451 -29.564 -18.4798 64.6237 1.61099 -36.2781 4.71044 -24.5391 -31.9512 -24.3085 11.6726 58.7342 -7.24278 9.76355 3.52113 10.9793 32.5539 -9.91349 16.985 -23.5634 50.0101 11.2717 -4.43479 -19.6172 9.21175 
38.9398 87.7278 31.6575 -5.80823 12.0524 -145.226 -0.874575 22.72 -29.7915 -17.5186 31.3301 -64.2298 23.8626 -10.6246 -70.2518 21.1848 -4.20277 -5.45634 6.49317 14.8796 22.3002 91.6978 9.29112 -23.4323 -29.9886 -19.3318 66.2207 1.18572 -38.4891 4.68396 -27.2264 -29.7526 -18.0814 13.0127 61.3181 -8.30397 14.078 2.06009 0.231611 33.7257 -10.699 15.0744 -23.224 49.617 10.9889 -5.19533 -17.7513 8.76835 
41.0902 87.2512 30.6583 -6.67911 11.8217 -143.411 -2.32417 21.9825 -27.0627 -27.207 49.8388 -61.3945 24.4085 -11.7254 -73.3738 16.5103 9.95293 -9.77261 10.3031 8.20731 24.8603 87.3558 11.5007 -18.4711 -30.5063 -20.4569 68.3023 2.11089 -38.6871 5.52002 -29.0363 -25.6067 -10.1622 13.434 62.1159 -8.85513 5.89624 -1.82957 -4.25504 34.5144 -11.0659 14.7707 -22.351 48.5682 10.2777 -7.23972 -16.0233 6.68266 
43.3322 86.6111 29.5675 -7.34398 10.6062 -142.683 -3.93968 20.5009 -21.5605 -38.5155 62.2369 -47.9391 24.8197 -12.521 -75.5779 14.9858 17.7255 -12.9214 11.0651 2.65624 24.2546 78.6756 12.4881 -15.6632 -31.1107 -21.9234 70.9772 2.91607 -39.3337 6.52192 -30.2593 -21.0135 -2.25308 12.5017 60.4617 -7.99295 5.14323 -3.54223 -5.50898 35.0923 -11.9979 15.3502 -21.8081 47.8866 9.82413 -9.06915 -14.249 5.36403 
45.946 85.826 28.4655 -7.22786 8.85831 -142.49 -4.76634 18.0996 -14.7299 -54.4225 63.4228 -22.6306 24.8856 -12.6565 -75.9492 14.3646 13.2153 -10.5803 7.94565 -0.454604 22.0435 66.8995 11.8092 -14.3068 -31.3563 -22.58 72.1638 1.96406 -41.6781 5.58891 -29.7506 -16.4519 3.5817 10.027 54.8396 -5.45876 19.021 -13.288 0.623949 36.0934 -13.8821 16.1464 -21.2847 47.2092 9.39372 -10.4534 -12.2151 5.00983 
48.8783 84.903 27.5245 -6.85437 7.52589 -141.927 -4.61082 16.8168 -8.22083 -57.3077 52.226 -7.49227 23.8653 -10.7748 -70.6792 16.4409 8.00294 -10.1663 4.18986 -1.59225 19.5841 53.4357 10.4607 -13.8503 -30.9102 -21.4156 70.0552 0.246422 -44.6818 4.64542 -29.1581 -13.2687 2.27666 8.18782 49.2706 -3.87766 22.1292 -21.3495 7.64291 37.4687 -16.165 16.2053 -20.7247 46.4627 8.94731 -11.8467 -10.1659 5.07546 
51.7197 83.8654 26.9232 -7.07755 6.78439 -141.838 -4.10629 16.6744 -3.04696 -51.5096 36.5843 -2.24196 20.497 -6.42032 -57.0521 20.6413 -2.49216 -7.25991 -0.214055 -0.568121 18.5926 39.1439 11.5069 -11.2701 -29.1482 -17.6961 63.1495 -2.40317 -45.6072 3.5109 -29.705 -15.2549 0.253006 9.19208 52.4946 -4.71568 22.8581 -25.4969 8.78437 38.4871 -17.426 16.0148 -20.0956 45.5947 8.45675 -13.6906 -8.21532 5.43885 
54.2311 83.0223 26.5571 -8.56701 7.43995 -142.369 -3.2203 18.0552 -1.16943 -47.633 22.1071 4.56535 15.2533 -2.4097 -40.4442 24.7588 -10.2018 3.24037 -5.07125 2.84499 21.6967 23.7754 14.2457 0.0331659 -25.0534 -11.7343 50.9538 -2.43125 -43.5206 5.2808 -30.5445 -18.1952 -1.86722 11.3733 58.098 -6.68099 19.4689 -24.9351 8.59501 38.8142 -16.0989 15.6238 -19.1051 44.1702 7.7451 -15.0941 -5.68924 5.84907 
56.3303 82.3825 25.929 -10.2083 7.97223 -142.315 -1.26282 17.9731 -2.46631 -48.1585 24.6847 19.6133 11.445 -0.725761 -29.8318 23.5592 -7.76997 7.13082 -11.4227 7.73935 27.9961 9.50125 14.1474 15.2299 -21.6503 -8.24771 42.6264 -1.28219 -39.0893 7.3392 -31.3574 -18.8076 -2.95119 12.9714 61.2802 -8.11591 19.3753 -26.2699 9.75865 38.8402 -14.4565 15.6855 -17.9896 42.4687 6.96998 -16.2153 -3.2678 5.3737 
57.9652 82.2935 25.248 -12.5813 8.78537 -142.879 1.24414 18.057 -0.98619 -66.4507 36.3712 46.1222 11.0076 -0.584086 -28.6561 18.7811 -12.1743 2.60961 -17.9793 12.5182 33.0653 1.96647 10.3416 27.2129 -22.4907 -9.02236 44.5941 -2.07827 -35.5304 8.53581 -31.6817 -18.3799 -1.87391 13.9972 63.0214 -9.06981 18.5381 -27.2031 9.87262 37.1273 -11.0957 14.2907 -16.1444 39.4117 5.73697 -17.3569 -1.18484 6.34411 
59.413 82.9478 24.7908 -14.891 9.25197 -142.816 4.96981 18.5051 3.33335 -80.9431 30.002 62.4374 11.419 -0.717135 -29.7625 16.4612 -11.1987 5.25949 -23.4171 18.4766 32.9525 0.348609 6.72692 37.7089 -25.2618 -11.982 51.5018 -0.742876 -32.8472 9.96496 -31.9619 -16.9533 -1.07469 13.8514 62.7937 -8.96536 17.3384 -27.3123 9.24155 33.5779 -8.38391 10.0137 -13.7293 34.9062 4.24322 -17.937 1.41741 10.8122 
61.1389 84.3524 24.5216 -17.4897 8.92508 -140.938 9.63336 19.169 10.84 -82.4143 19.2128 68.9929 13.9826 -1.75313 -36.8166 20.6556 -20.0812 10.8708 -25.9481 25.3984 26.9262 0.911987 7.54442 43.7342 -28.3226 -16.2663 60.369 -0.0818409 -29.6156 11.1271 -32.7215 -14.0494 -1.16599 12.5528 60.5263 -7.81381 16.238 -26.4168 7.7551 29.7451 -7.41191 6.46472 -11.5329 30.4552 3.08795 -17.5784 8.48518 14.5552 
63.461 86.2061 24.5091 -21.0987 8.315 -134.094 15.797 21.4849 17.5436 -76.7307 11.2922 71.5444 17.8822 -4.12218 -48.3561 19.812 -20.4007 12.0578 -22.951 31.8634 15.9333 2.31093 11.6801 42.9976 -30.4949 -20.4225 68.2387 -0.506479 -27.7105 11.017 -34.5048 -6.88383 -4.59172 10.5965 56.3193 -6.08541 15.8623 -24.6475 5.9511 27.0473 -9.45963 10.7471 -8.5734 27.0716 1.96842 -17.3742 26.1901 11.3036 
66.1636 87.9169 24.8079 -25.4233 6.20289 -124.29 21.713 23.6587 22.6429 -66.6783 5.07374 70.9664 20.8143 -6.74993 -58.1867 18.8222 -17.3798 10.9888 -12.5958 33.9187 3.75295 4.40099 17.1998 35.0745 -31.5081 -23.0062 72.9312 -2.67251 -27.6101 9.78834 -36.9235 2.12406 -9.84397 8.82438 51.3819 -4.57654 14.9188 -22.6627 3.19339 24.6019 -14.8429 23.5526 -6.3991 27.3101 0.949876 -28.2053 37.1257 6.26285 
69.1081 89.4327 25.5399 -28.5257 2.51936 -118.389 24.8398 26.7066 29.363 -54.0426 -3.06841 67.6281 22.5096 -8.76327 -64.7005 17.9984 -17.5401 11.818 -3.57032 26.606 -0.303143 7.43166 20.7504 24.1 -31.2136 -22.2118 71.4992 -5.08036 -26.6583 8.86308 -38.1805 6.26137 -10.3102 7.61021 47.1694 -3.63728 13.0528 -20.8601 -3.08947 26.2142 -20.0843 35.2398 -11.6174 32.1903 3.36111 -26.4589 32.0078 1.56627 
71.6651 90.637 26.2776 -30.595 -1.96063 -115.871 24.1579 29.8234 34.4662 -43.6996 -14.8756 65.7927 23.5863 -10.3203 -69.3655 21.1882 -16.8596 14.5956 -2.18613 12.4586 5.928 11.6003 21.3107 15.1368 -29.2452 -17.8752 63.4779 -6.16824 -28.0758 6.3566 -40.588 6.79356 -9.02504 6.95953 44.5428 -3.13978 12.0526 -18.7048 -8.4162 30.8775 -24.122 46.1418 -13.8058 35.3451 4.48231 -32.8868 34.0592 10.1198 
74.1313 91.3294 26.749 -31.7664 -6.78069 -115.694 20.4433 32.1312 36.2957 -40.27 -24.9938 65.999 24.5073 -11.9103 -73.8897 24.0961 -15.7882 16.7704 -7.58691 -7.31678 12.1802 14.6437 20.5213 10.5966 -25.9536 -12.8401 53.3647 -9.11256 -34.9681 1.84167 -44.4377 3.9449 -8.79803 7.03257 44.8781 -3.24782 9.60485 -16.8483 -11.1544 37.0729 -23.6509 56.5149 -14.0642 35.5096 4.45908 -29.6578 24.3899 5.49103 
76.3543 91.8707 27.287 -31.1699 -11.0424 -116.757 17.5127 32.7755 34.5786 -46.1609 -28.5536 60.0796 24.939 -12.7667 -76.2506 23.8887 -17.3939 17.1681 -18.3834 -31.7342 12.8401 15.1826 20.7489 7.91661 -23.8306 -10.3666 47.8369 -8.24198 -40.3433 -1.47143 -48.2204 -0.452167 -11.1942 7.04717 44.9665 -3.28667 8.20912 -14.6282 -10.6133 43.9547 -20.5587 61.7882 -12.8749 33.1475 3.5996 -33.5138 21.0046 13.1145 
78.2157 92.4438 27.9936 -28.3773 -15.0559 -118.419 15.9476 31.0075 30.5195 -54.9945 -26.1311 49.2476 25.1745 -13.274 -77.6284 21.7708 -19.6743 15.9742 -31.3062 -52.6914 6.27037 11.6322 21.7649 6.69442 -23.7346 -10.2649 47.5984 -7.40403 -41.2537 -0.801767 -51.5224 -6.25101 -16.0455 6.87021 44.242 -3.168 7.56575 -12.3162 -7.98335 50.3259 -16.111 55.7585 -11.9814 31.3419 3.15582 -30.0642 21.2918 8.04515 
79.6609 92.8878 29.1067 -24.6504 -19.2457 -121.566 15.6017 27.3701 25.5364 -59.6897 -22.7023 37.1847 25.2928 -13.5412 -78.3484 20.9294 -19.8843 13.8412 -33.9395 -58.6351 9.56242 4.0862 22.5135 7.82504 -24.2861 -10.8595 48.9793 -6.06052 -41.3178 0.959115 -55.2612 -14.233 -21.4632 6.74206 43.7065 -3.0719 7.83939 -9.32815 -4.72683 52.5531 -8.36747 40.719 -10.2392 27.9957 2.34006 -24.1735 22.1115 5.70964 
80.6116 93.0216 30.6057 -19.6558 -23.5384 -125.92 17.2176 22.1016 21.4693 -59.4757 -21.0239 23.5353 25.059 -13.0212 -76.9437 21.682 -18.2732 11.1988 -33.0212 -47.8967 16.8937 -7.01847 21.4245 10.4785 -24.5641 -11.1705 49.6877 -3.83741 -40.8687 3.12328 -58.4432 -24.2126 -26.7707 6.48132 42.5586 -2.8757 8.25162 -6.02293 -1.83423 50.4485 2.04273 20.5626 -8.65351 25.2672 1.59765 -23.1488 23.9826 6.84851 
81.251 92.6506 32.0137 -12.6483 -26.8848 -129.202 21.4689 16.5608 18.2261 -55.8354 -21.9428 8.99117 24.5979 -12.0822 -74.3675 23.3633 -17.0323 8.30838 -34.1144 -31.6341 23.2643 -19.0467 16.7934 12.0686 -24.2177 -10.7795 48.7998 -2.4322 -38.2228 5.84283 -59.799 -34.5369 -32.0647 6.29282 41.6776 -2.72192 9.62746 -4.28784 1.58675 45.8263 11.6157 0.477783 -10.0543 27.4759 2.24851 -17.2715 21.514 0.061314 
